<svg width="135" height="30" viewBox="0 0 135 30" fill="none" xmlns="http://www.w3.org/2000/svg">
<path d="M2.5 11.6667H0V15H2.5V25H6.66667V15H9.66667L10 11.6667H6.66667V10.25C6.66667 9.5 6.83333 9.16667 7.58333 9.16667H10V5H6.83333C3.83333 5 2.5 6.33333 2.5 8.83333V11.6667Z" fill="#8794BA"/>
<path d="M57.7392 25C67.0259 25 72.1045 17.3061 72.1045 10.6347C72.1045 10.4161 72.1 10.1987 72.0899 9.98202C73.0757 9.26942 73.9327 8.37993 74.6086 7.36786C73.704 7.76978 72.7306 8.04043 71.7093 8.16246C72.7516 7.53747 73.5521 6.54834 73.9296 5.36945C72.9539 5.94798 71.8736 6.36838 70.7238 6.59509C69.8021 5.6138 68.49 5 67.0382 5C64.2497 5 61.9885 7.26122 61.9885 10.0484C61.9885 10.4447 62.033 10.8298 62.1192 11.1995C57.9234 10.9888 54.2025 8.97946 51.7126 5.92475C51.2785 6.67066 51.0286 7.53775 51.0286 8.46222C51.0286 10.2138 51.92 11.7601 53.2755 12.665C52.4473 12.6396 51.6693 12.4117 50.9888 12.0333C50.9877 12.0543 50.9877 12.0756 50.9877 12.0977C50.9877 14.5431 52.7284 16.5846 55.0383 17.0472C54.6142 17.1628 54.1681 17.225 53.7074 17.225C53.3822 17.225 53.0659 17.1925 52.7583 17.134C53.4009 19.1397 55.265 20.5996 57.475 20.6407C55.7467 21.9951 53.5697 22.802 51.2044 22.802C50.7971 22.802 50.3952 22.7788 50 22.7321C52.2344 24.164 54.8874 25 57.7392 25Z" fill="#8794BA"/>
<path d="M124.609 6.83333C127.275 6.83333 127.609 6.83333 128.692 6.91667C131.442 7 132.692 8.33333 132.775 11C132.859 12.0833 132.859 12.3333 132.859 15C132.859 17.6667 132.859 18 132.775 19C132.692 21.6667 131.359 23 128.692 23.0833C127.609 23.1667 127.359 23.1667 124.609 23.1667C121.942 23.1667 121.609 23.1667 120.609 23.0833C117.859 23 116.609 21.6667 116.525 19C116.442 17.9167 116.442 17.6667 116.442 15C116.442 12.3333 116.442 12 116.525 11C116.609 8.33333 117.942 7 120.609 6.91667C121.609 6.83333 121.942 6.83333 124.609 6.83333ZM124.609 5C121.859 5 121.525 5 120.525 5.08333C116.859 5.25 114.859 7.25 114.692 10.9167C114.609 11.9167 114.609 12.25 114.609 15C114.609 17.75 114.609 18.0833 114.692 19.0833C114.859 22.75 116.859 24.75 120.525 24.9167C121.525 25 121.859 25 124.609 25C127.359 25 127.692 25 128.692 24.9167C132.359 24.75 134.359 22.75 134.525 19.0833C134.609 18.0833 134.609 17.75 134.609 15C134.609 12.25 134.609 11.9167 134.525 10.9167C134.359 7.25 132.359 5.25 128.692 5.08333C127.692 5 127.359 5 124.609 5ZM124.609 9.83333C121.775 9.83333 119.442 12.1667 119.442 15C119.442 17.8333 121.775 20.1667 124.609 20.1667C127.442 20.1667 129.775 17.8333 129.775 15C129.775 12.1667 127.442 9.83333 124.609 9.83333ZM124.609 18.3333C122.775 18.3333 121.275 16.8333 121.275 15C121.275 13.1667 122.775 11.6667 124.609 11.6667C126.442 11.6667 127.942 13.1667 127.942 15C127.942 16.8333 126.442 18.3333 124.609 18.3333ZM129.942 8.5C129.275 8.5 128.775 9 128.775 9.66667C128.775 10.3333 129.275 10.8333 129.942 10.8333C130.609 10.8333 131.109 10.3333 131.109 9.66667C131.109 9 130.609 8.5 129.942 8.5Z" fill="#8794BA"/>
</svg>
