<svg width="671" height="480" viewBox="0 0 671 480" fill="none" xmlns="http://www.w3.org/2000/svg">
<g filter="url(#filter0_d_535_1644)">
<rect x="35.8706" y="17" width="600" height="410" rx="30" fill="white"/>
</g>
<rect x="105.871" y="119" width="66" height="52" fill="white"/>
<rect x="171.871" y="119" width="66" height="52" fill="white"/>
<path d="M204.981 140.422V149H203.897V141.775L201.712 142.572V141.594L204.812 140.422H204.981Z" fill="#172755"/>
<rect x="237.871" y="119" width="66" height="52" fill="white"/>
<path d="M273.009 148.109V149H267.425V148.221L270.22 145.109C270.563 144.727 270.829 144.402 271.017 144.137C271.208 143.867 271.341 143.627 271.415 143.416C271.493 143.201 271.532 142.982 271.532 142.76C271.532 142.479 271.474 142.225 271.356 141.998C271.243 141.768 271.075 141.584 270.853 141.447C270.63 141.311 270.36 141.242 270.044 141.242C269.665 141.242 269.349 141.316 269.095 141.465C268.845 141.609 268.657 141.812 268.532 142.074C268.407 142.336 268.345 142.637 268.345 142.977H267.261C267.261 142.496 267.366 142.057 267.577 141.658C267.788 141.26 268.101 140.943 268.515 140.709C268.929 140.471 269.438 140.352 270.044 140.352C270.583 140.352 271.044 140.447 271.427 140.639C271.81 140.826 272.103 141.092 272.306 141.436C272.513 141.775 272.616 142.174 272.616 142.631C272.616 142.881 272.573 143.135 272.487 143.393C272.405 143.646 272.29 143.9 272.142 144.154C271.997 144.408 271.827 144.658 271.632 144.904C271.44 145.15 271.235 145.393 271.017 145.631L268.731 148.109H273.009Z" fill="#172755"/>
<rect x="303.871" y="119" width="66" height="52" fill="white"/>
<path d="M335.001 144.201H335.774C336.153 144.201 336.466 144.139 336.712 144.014C336.962 143.885 337.147 143.711 337.269 143.492C337.394 143.27 337.456 143.02 337.456 142.742C337.456 142.414 337.401 142.139 337.292 141.916C337.183 141.693 337.019 141.525 336.8 141.412C336.581 141.299 336.304 141.242 335.968 141.242C335.663 141.242 335.394 141.303 335.159 141.424C334.929 141.541 334.747 141.709 334.614 141.928C334.485 142.146 334.421 142.404 334.421 142.701H333.337C333.337 142.268 333.446 141.873 333.665 141.518C333.884 141.162 334.19 140.879 334.585 140.668C334.983 140.457 335.444 140.352 335.968 140.352C336.483 140.352 336.935 140.443 337.321 140.627C337.708 140.807 338.009 141.076 338.224 141.436C338.438 141.791 338.546 142.234 338.546 142.766C338.546 142.98 338.495 143.211 338.394 143.457C338.296 143.699 338.142 143.926 337.931 144.137C337.724 144.348 337.454 144.521 337.122 144.658C336.79 144.791 336.392 144.857 335.927 144.857H335.001V144.201ZM335.001 145.092V144.441H335.927C336.47 144.441 336.919 144.506 337.274 144.635C337.63 144.764 337.909 144.936 338.112 145.15C338.319 145.365 338.464 145.602 338.546 145.859C338.632 146.113 338.675 146.367 338.675 146.621C338.675 147.02 338.606 147.373 338.47 147.682C338.337 147.99 338.147 148.252 337.901 148.467C337.659 148.682 337.374 148.844 337.046 148.953C336.718 149.062 336.36 149.117 335.974 149.117C335.603 149.117 335.253 149.064 334.925 148.959C334.601 148.854 334.313 148.701 334.063 148.502C333.813 148.299 333.618 148.051 333.478 147.758C333.337 147.461 333.267 147.123 333.267 146.744H334.351C334.351 147.041 334.415 147.301 334.544 147.523C334.677 147.746 334.864 147.92 335.106 148.045C335.353 148.166 335.642 148.227 335.974 148.227C336.306 148.227 336.591 148.17 336.829 148.057C337.071 147.939 337.257 147.764 337.386 147.529C337.519 147.295 337.585 147 337.585 146.645C337.585 146.289 337.511 145.998 337.362 145.771C337.214 145.541 337.003 145.371 336.729 145.262C336.46 145.148 336.142 145.092 335.774 145.092H335.001Z" fill="#172755"/>
<rect x="369.871" y="119" width="66" height="52" fill="white"/>
<path d="M405.185 146.129V147.02H399.021V146.381L402.841 140.469H403.726L402.776 142.18L400.251 146.129H405.185ZM403.995 140.469V149H402.911V140.469H403.995Z" fill="#172755"/>
<rect x="435.871" y="119" width="66" height="52" fill="white"/>
<path d="M466.79 144.939L465.923 144.717L466.351 140.469H470.728V141.471H467.271L467.013 143.791C467.169 143.701 467.366 143.617 467.604 143.539C467.847 143.461 468.124 143.422 468.437 143.422C468.831 143.422 469.185 143.49 469.497 143.627C469.81 143.76 470.075 143.951 470.294 144.201C470.517 144.451 470.687 144.752 470.804 145.104C470.921 145.455 470.979 145.848 470.979 146.281C470.979 146.691 470.923 147.068 470.81 147.412C470.7 147.756 470.534 148.057 470.312 148.314C470.089 148.568 469.808 148.766 469.468 148.906C469.132 149.047 468.735 149.117 468.278 149.117C467.935 149.117 467.608 149.07 467.3 148.977C466.995 148.879 466.722 148.732 466.479 148.537C466.241 148.338 466.046 148.092 465.894 147.799C465.745 147.502 465.651 147.154 465.612 146.756H466.644C466.69 147.076 466.784 147.346 466.925 147.564C467.065 147.783 467.249 147.949 467.476 148.062C467.706 148.172 467.974 148.227 468.278 148.227C468.536 148.227 468.765 148.182 468.964 148.092C469.163 148.002 469.331 147.873 469.468 147.705C469.604 147.537 469.708 147.334 469.778 147.096C469.853 146.857 469.89 146.59 469.89 146.293C469.89 146.023 469.853 145.773 469.778 145.543C469.704 145.312 469.593 145.111 469.444 144.939C469.3 144.768 469.122 144.635 468.911 144.541C468.7 144.443 468.458 144.395 468.185 144.395C467.821 144.395 467.546 144.443 467.358 144.541C467.175 144.639 466.985 144.771 466.79 144.939Z" fill="#172755"/>
<rect x="501.871" y="119" width="66" height="52" fill="white"/>
<path d="M535.579 140.457H535.673V141.377H535.579C535.005 141.377 534.524 141.471 534.138 141.658C533.751 141.842 533.444 142.09 533.218 142.402C532.991 142.711 532.827 143.059 532.726 143.445C532.628 143.832 532.579 144.225 532.579 144.623V145.877C532.579 146.256 532.624 146.592 532.714 146.885C532.804 147.174 532.927 147.418 533.083 147.617C533.239 147.816 533.415 147.967 533.61 148.068C533.81 148.17 534.017 148.221 534.231 148.221C534.481 148.221 534.704 148.174 534.899 148.08C535.095 147.982 535.259 147.848 535.392 147.676C535.528 147.5 535.632 147.293 535.702 147.055C535.772 146.816 535.808 146.555 535.808 146.27C535.808 146.016 535.776 145.771 535.714 145.537C535.651 145.299 535.556 145.088 535.427 144.904C535.298 144.717 535.136 144.57 534.94 144.465C534.749 144.355 534.521 144.301 534.255 144.301C533.954 144.301 533.673 144.375 533.411 144.523C533.153 144.668 532.94 144.859 532.772 145.098C532.608 145.332 532.515 145.588 532.491 145.865L531.917 145.859C531.972 145.422 532.073 145.049 532.222 144.74C532.374 144.428 532.562 144.174 532.784 143.979C533.011 143.779 533.263 143.635 533.54 143.545C533.821 143.451 534.118 143.404 534.431 143.404C534.856 143.404 535.224 143.484 535.532 143.645C535.841 143.805 536.095 144.02 536.294 144.289C536.493 144.555 536.64 144.855 536.733 145.191C536.831 145.523 536.88 145.865 536.88 146.217C536.88 146.619 536.823 146.996 536.71 147.348C536.597 147.699 536.427 148.008 536.2 148.273C535.978 148.539 535.702 148.746 535.374 148.895C535.046 149.043 534.665 149.117 534.231 149.117C533.771 149.117 533.368 149.023 533.024 148.836C532.681 148.645 532.396 148.391 532.169 148.074C531.942 147.758 531.772 147.406 531.659 147.02C531.546 146.633 531.489 146.24 531.489 145.842V145.332C531.489 144.73 531.55 144.141 531.671 143.562C531.792 142.984 532.001 142.461 532.298 141.992C532.599 141.523 533.015 141.15 533.546 140.873C534.077 140.596 534.755 140.457 535.579 140.457Z" fill="#172755"/>
<rect x="105.871" y="171" width="66" height="52" fill="white"/>
<path d="M140.933 192.469V193.078L137.399 201H136.257L139.784 193.359H135.167V192.469H140.933Z" fill="#172755"/>
<rect x="171.871" y="171" width="66" height="52" fill="white"/>
<circle cx="204.371" cy="196.5" r="19.5" fill="#0088F0"/>
<path d="M206.798 198.691C206.798 199.211 206.677 199.652 206.435 200.016C206.196 200.375 205.872 200.648 205.462 200.836C205.056 201.023 204.597 201.117 204.085 201.117C203.573 201.117 203.112 201.023 202.702 200.836C202.292 200.648 201.968 200.375 201.729 200.016C201.491 199.652 201.372 199.211 201.372 198.691C201.372 198.352 201.437 198.041 201.565 197.76C201.698 197.475 201.884 197.227 202.122 197.016C202.364 196.805 202.649 196.643 202.978 196.529C203.31 196.412 203.675 196.354 204.073 196.354C204.597 196.354 205.063 196.455 205.474 196.658C205.884 196.857 206.206 197.133 206.44 197.484C206.679 197.836 206.798 198.238 206.798 198.691ZM205.708 198.668C205.708 198.352 205.64 198.072 205.503 197.83C205.366 197.584 205.175 197.393 204.929 197.256C204.683 197.119 204.397 197.051 204.073 197.051C203.741 197.051 203.454 197.119 203.212 197.256C202.974 197.393 202.788 197.584 202.655 197.83C202.522 198.072 202.456 198.352 202.456 198.668C202.456 198.996 202.521 199.277 202.649 199.512C202.782 199.742 202.97 199.92 203.212 200.045C203.458 200.166 203.749 200.227 204.085 200.227C204.421 200.227 204.71 200.166 204.952 200.045C205.194 199.92 205.38 199.742 205.509 199.512C205.642 199.277 205.708 198.996 205.708 198.668ZM206.599 194.689C206.599 195.104 206.489 195.477 206.271 195.809C206.052 196.141 205.753 196.402 205.374 196.594C204.995 196.785 204.565 196.881 204.085 196.881C203.597 196.881 203.161 196.785 202.778 196.594C202.399 196.402 202.103 196.141 201.888 195.809C201.673 195.477 201.565 195.104 201.565 194.689C201.565 194.193 201.673 193.771 201.888 193.424C202.106 193.076 202.405 192.811 202.784 192.627C203.163 192.443 203.595 192.352 204.079 192.352C204.567 192.352 205.001 192.443 205.38 192.627C205.759 192.811 206.056 193.076 206.271 193.424C206.489 193.771 206.599 194.193 206.599 194.689ZM205.515 194.707C205.515 194.422 205.454 194.17 205.333 193.951C205.212 193.732 205.044 193.561 204.829 193.436C204.614 193.307 204.364 193.242 204.079 193.242C203.794 193.242 203.544 193.303 203.329 193.424C203.118 193.541 202.952 193.709 202.831 193.928C202.714 194.146 202.655 194.406 202.655 194.707C202.655 195 202.714 195.256 202.831 195.475C202.952 195.693 203.12 195.863 203.335 195.984C203.55 196.105 203.8 196.166 204.085 196.166C204.37 196.166 204.618 196.105 204.829 195.984C205.044 195.863 205.212 195.693 205.333 195.475C205.454 195.256 205.515 195 205.515 194.707Z" fill="#EEEEF7"/>
<rect x="237.871" y="171" width="66" height="52" fill="white"/>
<circle cx="270.371" cy="196.5" r="19.5" fill="#0088F0"/>
<path d="M268.497 200.092H268.608C269.233 200.092 269.741 200.004 270.132 199.828C270.522 199.652 270.823 199.416 271.034 199.119C271.245 198.822 271.39 198.488 271.468 198.117C271.546 197.742 271.585 197.357 271.585 196.963V195.656C271.585 195.27 271.54 194.926 271.45 194.625C271.364 194.324 271.243 194.072 271.087 193.869C270.935 193.666 270.761 193.512 270.565 193.406C270.37 193.301 270.163 193.248 269.944 193.248C269.694 193.248 269.47 193.299 269.271 193.4C269.075 193.498 268.909 193.637 268.772 193.816C268.64 193.996 268.538 194.207 268.468 194.449C268.397 194.691 268.362 194.955 268.362 195.24C268.362 195.494 268.394 195.74 268.456 195.979C268.519 196.217 268.614 196.432 268.743 196.623C268.872 196.814 269.032 196.967 269.224 197.08C269.419 197.189 269.647 197.244 269.909 197.244C270.151 197.244 270.378 197.197 270.589 197.104C270.804 197.006 270.993 196.875 271.157 196.711C271.325 196.543 271.458 196.354 271.556 196.143C271.657 195.932 271.716 195.711 271.731 195.48H272.247C272.247 195.805 272.183 196.125 272.054 196.441C271.929 196.754 271.753 197.039 271.526 197.297C271.3 197.555 271.034 197.762 270.729 197.918C270.425 198.07 270.093 198.146 269.733 198.146C269.312 198.146 268.946 198.064 268.638 197.9C268.329 197.736 268.075 197.518 267.876 197.244C267.681 196.971 267.534 196.666 267.437 196.33C267.343 195.99 267.296 195.646 267.296 195.299C267.296 194.893 267.353 194.512 267.466 194.156C267.579 193.801 267.747 193.488 267.97 193.219C268.192 192.945 268.468 192.732 268.796 192.58C269.128 192.428 269.511 192.352 269.944 192.352C270.433 192.352 270.849 192.449 271.192 192.645C271.536 192.84 271.815 193.102 272.03 193.43C272.249 193.758 272.409 194.127 272.511 194.537C272.612 194.947 272.663 195.369 272.663 195.803V196.195C272.663 196.637 272.634 197.086 272.575 197.543C272.521 197.996 272.413 198.43 272.253 198.844C272.097 199.258 271.868 199.629 271.567 199.957C271.267 200.281 270.874 200.539 270.39 200.73C269.909 200.918 269.315 201.012 268.608 201.012H268.497V200.092Z" fill="#EEEEF7"/>
<rect x="303.871" y="171" width="66" height="52" fill="white"/>
<circle cx="336.371" cy="196.5" r="19.5" fill="#0088F0"/>
<path d="M333.106 192.422V201H332.022V193.775L329.837 194.572V193.594L332.937 192.422H333.106ZM341.649 196.055V197.355C341.649 198.055 341.587 198.645 341.462 199.125C341.337 199.605 341.157 199.992 340.923 200.285C340.688 200.578 340.405 200.791 340.073 200.924C339.745 201.053 339.374 201.117 338.96 201.117C338.632 201.117 338.329 201.076 338.052 200.994C337.774 200.912 337.524 200.781 337.302 200.602C337.083 200.418 336.896 200.18 336.739 199.887C336.583 199.594 336.464 199.238 336.382 198.82C336.3 198.402 336.259 197.914 336.259 197.355V196.055C336.259 195.355 336.321 194.77 336.446 194.297C336.575 193.824 336.757 193.445 336.991 193.16C337.226 192.871 337.507 192.664 337.835 192.539C338.167 192.414 338.538 192.352 338.948 192.352C339.28 192.352 339.585 192.393 339.862 192.475C340.144 192.553 340.394 192.68 340.612 192.855C340.831 193.027 341.017 193.258 341.169 193.547C341.325 193.832 341.444 194.182 341.526 194.596C341.608 195.01 341.649 195.496 341.649 196.055ZM340.56 197.531V195.873C340.56 195.49 340.536 195.154 340.489 194.865C340.446 194.572 340.382 194.322 340.296 194.115C340.21 193.908 340.101 193.74 339.968 193.611C339.839 193.482 339.688 193.389 339.517 193.33C339.349 193.268 339.159 193.236 338.948 193.236C338.69 193.236 338.462 193.285 338.263 193.383C338.063 193.477 337.896 193.627 337.759 193.834C337.626 194.041 337.524 194.312 337.454 194.648C337.384 194.984 337.349 195.393 337.349 195.873V197.531C337.349 197.914 337.37 198.252 337.413 198.545C337.46 198.838 337.528 199.092 337.618 199.307C337.708 199.518 337.817 199.691 337.946 199.828C338.075 199.965 338.224 200.066 338.392 200.133C338.563 200.195 338.753 200.227 338.96 200.227C339.226 200.227 339.458 200.176 339.657 200.074C339.856 199.973 340.022 199.814 340.155 199.6C340.292 199.381 340.394 199.102 340.46 198.762C340.526 198.418 340.56 198.008 340.56 197.531Z" fill="#EEEEF7"/>
<rect x="369.871" y="171" width="66" height="52" fill="white"/>
<path d="M399.106 192.422V201H398.022V193.775L395.837 194.572V193.594L398.937 192.422H399.106ZM405.856 192.422V201H404.772V193.775L402.587 194.572V193.594L405.687 192.422H405.856Z" fill="#172755"/>
<rect x="435.871" y="171" width="66" height="52" fill="white"/>
<path d="M465.106 192.422V201H464.022V193.775L461.837 194.572V193.594L464.937 192.422H465.106ZM473.884 200.109V201H468.3V200.221L471.095 197.109C471.438 196.727 471.704 196.402 471.892 196.137C472.083 195.867 472.216 195.627 472.29 195.416C472.368 195.201 472.407 194.982 472.407 194.76C472.407 194.479 472.349 194.225 472.231 193.998C472.118 193.768 471.95 193.584 471.728 193.447C471.505 193.311 471.235 193.242 470.919 193.242C470.54 193.242 470.224 193.316 469.97 193.465C469.72 193.609 469.532 193.812 469.407 194.074C469.282 194.336 469.22 194.637 469.22 194.977H468.136C468.136 194.496 468.241 194.057 468.452 193.658C468.663 193.26 468.976 192.943 469.39 192.709C469.804 192.471 470.313 192.352 470.919 192.352C471.458 192.352 471.919 192.447 472.302 192.639C472.685 192.826 472.978 193.092 473.181 193.436C473.388 193.775 473.491 194.174 473.491 194.631C473.491 194.881 473.448 195.135 473.362 195.393C473.28 195.646 473.165 195.9 473.017 196.154C472.872 196.408 472.702 196.658 472.507 196.904C472.315 197.15 472.11 197.393 471.892 197.631L469.606 200.109H473.884Z" fill="#172755"/>
<rect x="501.871" y="171" width="66" height="52" fill="white"/>
<path d="M531.106 192.422V201H530.022V193.775L527.837 194.572V193.594L530.937 192.422H531.106ZM535.876 196.201H536.649C537.028 196.201 537.341 196.139 537.587 196.014C537.837 195.885 538.022 195.711 538.144 195.492C538.269 195.27 538.331 195.02 538.331 194.742C538.331 194.414 538.276 194.139 538.167 193.916C538.058 193.693 537.894 193.525 537.675 193.412C537.456 193.299 537.179 193.242 536.843 193.242C536.538 193.242 536.269 193.303 536.034 193.424C535.804 193.541 535.622 193.709 535.489 193.928C535.36 194.146 535.296 194.404 535.296 194.701H534.212C534.212 194.268 534.321 193.873 534.54 193.518C534.759 193.162 535.065 192.879 535.46 192.668C535.858 192.457 536.319 192.352 536.843 192.352C537.358 192.352 537.81 192.443 538.196 192.627C538.583 192.807 538.884 193.076 539.099 193.436C539.313 193.791 539.421 194.234 539.421 194.766C539.421 194.98 539.37 195.211 539.269 195.457C539.171 195.699 539.017 195.926 538.806 196.137C538.599 196.348 538.329 196.521 537.997 196.658C537.665 196.791 537.267 196.857 536.802 196.857H535.876V196.201ZM535.876 197.092V196.441H536.802C537.345 196.441 537.794 196.506 538.149 196.635C538.505 196.764 538.784 196.936 538.987 197.15C539.194 197.365 539.339 197.602 539.421 197.859C539.507 198.113 539.55 198.367 539.55 198.621C539.55 199.02 539.481 199.373 539.345 199.682C539.212 199.99 539.022 200.252 538.776 200.467C538.534 200.682 538.249 200.844 537.921 200.953C537.593 201.062 537.235 201.117 536.849 201.117C536.478 201.117 536.128 201.064 535.8 200.959C535.476 200.854 535.188 200.701 534.938 200.502C534.688 200.299 534.493 200.051 534.353 199.758C534.212 199.461 534.142 199.123 534.142 198.744H535.226C535.226 199.041 535.29 199.301 535.419 199.523C535.552 199.746 535.739 199.92 535.981 200.045C536.228 200.166 536.517 200.227 536.849 200.227C537.181 200.227 537.466 200.17 537.704 200.057C537.946 199.939 538.132 199.764 538.261 199.529C538.394 199.295 538.46 199 538.46 198.645C538.46 198.289 538.386 197.998 538.237 197.771C538.089 197.541 537.878 197.371 537.604 197.262C537.335 197.148 537.017 197.092 536.649 197.092H535.876Z" fill="#172755"/>
<rect x="105.871" y="223" width="66" height="52" fill="white"/>
<path d="M135.106 244.422V253H134.022V245.775L131.837 246.572V245.594L134.937 244.422H135.106ZM144.06 250.129V251.02H137.896V250.381L141.716 244.469H142.601L141.651 246.18L139.126 250.129H144.06ZM142.87 244.469V253H141.786V244.469H142.87Z" fill="#172755"/>
<rect x="171.871" y="223" width="66" height="52" fill="white"/>
<path d="M201.106 244.422V253H200.022V245.775L197.837 246.572V245.594L200.937 244.422H201.106ZM205.665 248.939L204.798 248.717L205.226 244.469H209.603V245.471H206.146L205.888 247.791C206.044 247.701 206.241 247.617 206.479 247.539C206.722 247.461 206.999 247.422 207.312 247.422C207.706 247.422 208.06 247.49 208.372 247.627C208.685 247.76 208.95 247.951 209.169 248.201C209.392 248.451 209.562 248.752 209.679 249.104C209.796 249.455 209.854 249.848 209.854 250.281C209.854 250.691 209.798 251.068 209.685 251.412C209.575 251.756 209.409 252.057 209.187 252.314C208.964 252.568 208.683 252.766 208.343 252.906C208.007 253.047 207.61 253.117 207.153 253.117C206.81 253.117 206.483 253.07 206.175 252.977C205.87 252.879 205.597 252.732 205.354 252.537C205.116 252.338 204.921 252.092 204.769 251.799C204.62 251.502 204.526 251.154 204.487 250.756H205.519C205.565 251.076 205.659 251.346 205.8 251.564C205.94 251.783 206.124 251.949 206.351 252.062C206.581 252.172 206.849 252.227 207.153 252.227C207.411 252.227 207.64 252.182 207.839 252.092C208.038 252.002 208.206 251.873 208.343 251.705C208.479 251.537 208.583 251.334 208.653 251.096C208.728 250.857 208.765 250.59 208.765 250.293C208.765 250.023 208.728 249.773 208.653 249.543C208.579 249.312 208.468 249.111 208.319 248.939C208.175 248.768 207.997 248.635 207.786 248.541C207.575 248.443 207.333 248.395 207.06 248.395C206.696 248.395 206.421 248.443 206.233 248.541C206.05 248.639 205.86 248.771 205.665 248.939Z" fill="#172755"/>
<rect x="237.871" y="223" width="66" height="52" fill="white"/>
<path d="M267.106 244.422V253H266.022V245.775L263.837 246.572V245.594L266.937 244.422H267.106ZM274.454 244.457H274.548V245.377H274.454C273.88 245.377 273.399 245.471 273.013 245.658C272.626 245.842 272.319 246.09 272.093 246.402C271.866 246.711 271.702 247.059 271.601 247.445C271.503 247.832 271.454 248.225 271.454 248.623V249.877C271.454 250.256 271.499 250.592 271.589 250.885C271.679 251.174 271.802 251.418 271.958 251.617C272.114 251.816 272.29 251.967 272.485 252.068C272.685 252.17 272.892 252.221 273.106 252.221C273.356 252.221 273.579 252.174 273.774 252.08C273.97 251.982 274.134 251.848 274.267 251.676C274.403 251.5 274.507 251.293 274.577 251.055C274.647 250.816 274.683 250.555 274.683 250.27C274.683 250.016 274.651 249.771 274.589 249.537C274.526 249.299 274.431 249.088 274.302 248.904C274.173 248.717 274.011 248.57 273.815 248.465C273.624 248.355 273.396 248.301 273.13 248.301C272.829 248.301 272.548 248.375 272.286 248.523C272.028 248.668 271.815 248.859 271.647 249.098C271.483 249.332 271.39 249.588 271.366 249.865L270.792 249.859C270.847 249.422 270.948 249.049 271.097 248.74C271.249 248.428 271.437 248.174 271.659 247.979C271.886 247.779 272.138 247.635 272.415 247.545C272.696 247.451 272.993 247.404 273.306 247.404C273.731 247.404 274.099 247.484 274.407 247.645C274.716 247.805 274.97 248.02 275.169 248.289C275.368 248.555 275.515 248.855 275.608 249.191C275.706 249.523 275.755 249.865 275.755 250.217C275.755 250.619 275.698 250.996 275.585 251.348C275.472 251.699 275.302 252.008 275.075 252.273C274.853 252.539 274.577 252.746 274.249 252.895C273.921 253.043 273.54 253.117 273.106 253.117C272.646 253.117 272.243 253.023 271.899 252.836C271.556 252.645 271.271 252.391 271.044 252.074C270.817 251.758 270.647 251.406 270.534 251.02C270.421 250.633 270.364 250.24 270.364 249.842V249.332C270.364 248.73 270.425 248.141 270.546 247.562C270.667 246.984 270.876 246.461 271.173 245.992C271.474 245.523 271.89 245.15 272.421 244.873C272.952 244.596 273.63 244.457 274.454 244.457Z" fill="#172755"/>
<rect x="303.871" y="223" width="66" height="52" fill="white"/>
<path d="M333.106 244.422V253H332.022V245.775L329.837 246.572V245.594L332.937 244.422H333.106ZM341.808 244.469V245.078L338.274 253H337.132L340.659 245.359H336.042V244.469H341.808Z" fill="#172755"/>
<rect x="369.871" y="223" width="66" height="52" fill="white"/>
<circle cx="402.371" cy="248.5" r="19.5" fill="#EF2A82"/>
<path d="M399.106 244.422V253H398.022V245.775L395.837 246.572V245.594L398.937 244.422H399.106ZM407.673 250.691C407.673 251.211 407.552 251.652 407.31 252.016C407.071 252.375 406.747 252.648 406.337 252.836C405.931 253.023 405.472 253.117 404.96 253.117C404.448 253.117 403.987 253.023 403.577 252.836C403.167 252.648 402.843 252.375 402.604 252.016C402.366 251.652 402.247 251.211 402.247 250.691C402.247 250.352 402.312 250.041 402.44 249.76C402.573 249.475 402.759 249.227 402.997 249.016C403.239 248.805 403.524 248.643 403.853 248.529C404.185 248.412 404.55 248.354 404.948 248.354C405.472 248.354 405.938 248.455 406.349 248.658C406.759 248.857 407.081 249.133 407.315 249.484C407.554 249.836 407.673 250.238 407.673 250.691ZM406.583 250.668C406.583 250.352 406.515 250.072 406.378 249.83C406.241 249.584 406.05 249.393 405.804 249.256C405.558 249.119 405.272 249.051 404.948 249.051C404.616 249.051 404.329 249.119 404.087 249.256C403.849 249.393 403.663 249.584 403.53 249.83C403.397 250.072 403.331 250.352 403.331 250.668C403.331 250.996 403.396 251.277 403.524 251.512C403.657 251.742 403.845 251.92 404.087 252.045C404.333 252.166 404.624 252.227 404.96 252.227C405.296 252.227 405.585 252.166 405.827 252.045C406.069 251.92 406.255 251.742 406.384 251.512C406.517 251.277 406.583 250.996 406.583 250.668ZM407.474 246.689C407.474 247.104 407.364 247.477 407.146 247.809C406.927 248.141 406.628 248.402 406.249 248.594C405.87 248.785 405.44 248.881 404.96 248.881C404.472 248.881 404.036 248.785 403.653 248.594C403.274 248.402 402.978 248.141 402.763 247.809C402.548 247.477 402.44 247.104 402.44 246.689C402.44 246.193 402.548 245.771 402.763 245.424C402.981 245.076 403.28 244.811 403.659 244.627C404.038 244.443 404.47 244.352 404.954 244.352C405.442 244.352 405.876 244.443 406.255 244.627C406.634 244.811 406.931 245.076 407.146 245.424C407.364 245.771 407.474 246.193 407.474 246.689ZM406.39 246.707C406.39 246.422 406.329 246.17 406.208 245.951C406.087 245.732 405.919 245.561 405.704 245.436C405.489 245.307 405.239 245.242 404.954 245.242C404.669 245.242 404.419 245.303 404.204 245.424C403.993 245.541 403.827 245.709 403.706 245.928C403.589 246.146 403.53 246.406 403.53 246.707C403.53 247 403.589 247.256 403.706 247.475C403.827 247.693 403.995 247.863 404.21 247.984C404.425 248.105 404.675 248.166 404.96 248.166C405.245 248.166 405.493 248.105 405.704 247.984C405.919 247.863 406.087 247.693 406.208 247.475C406.329 247.256 406.39 247 406.39 246.707Z" fill="#EEEEF7"/>
<rect x="435.871" y="223" width="66" height="52" fill="white"/>
<path d="M465.106 244.422V253H464.022V245.775L461.837 246.572V245.594L464.937 244.422H465.106ZM469.372 252.092H469.483C470.108 252.092 470.616 252.004 471.007 251.828C471.397 251.652 471.698 251.416 471.909 251.119C472.12 250.822 472.265 250.488 472.343 250.117C472.421 249.742 472.46 249.357 472.46 248.963V247.656C472.46 247.27 472.415 246.926 472.325 246.625C472.239 246.324 472.118 246.072 471.962 245.869C471.81 245.666 471.636 245.512 471.44 245.406C471.245 245.301 471.038 245.248 470.819 245.248C470.569 245.248 470.345 245.299 470.146 245.4C469.95 245.498 469.784 245.637 469.647 245.816C469.515 245.996 469.413 246.207 469.343 246.449C469.272 246.691 469.237 246.955 469.237 247.24C469.237 247.494 469.269 247.74 469.331 247.979C469.394 248.217 469.489 248.432 469.618 248.623C469.747 248.814 469.907 248.967 470.099 249.08C470.294 249.189 470.522 249.244 470.784 249.244C471.026 249.244 471.253 249.197 471.464 249.104C471.679 249.006 471.868 248.875 472.032 248.711C472.2 248.543 472.333 248.354 472.431 248.143C472.532 247.932 472.591 247.711 472.606 247.48H473.122C473.122 247.805 473.058 248.125 472.929 248.441C472.804 248.754 472.628 249.039 472.401 249.297C472.175 249.555 471.909 249.762 471.604 249.918C471.3 250.07 470.968 250.146 470.608 250.146C470.187 250.146 469.821 250.064 469.513 249.9C469.204 249.736 468.95 249.518 468.751 249.244C468.556 248.971 468.409 248.666 468.312 248.33C468.218 247.99 468.171 247.646 468.171 247.299C468.171 246.893 468.228 246.512 468.341 246.156C468.454 245.801 468.622 245.488 468.845 245.219C469.067 244.945 469.343 244.732 469.671 244.58C470.003 244.428 470.386 244.352 470.819 244.352C471.308 244.352 471.724 244.449 472.067 244.645C472.411 244.84 472.69 245.102 472.905 245.43C473.124 245.758 473.284 246.127 473.386 246.537C473.487 246.947 473.538 247.369 473.538 247.803V248.195C473.538 248.637 473.509 249.086 473.45 249.543C473.396 249.996 473.288 250.43 473.128 250.844C472.972 251.258 472.743 251.629 472.442 251.957C472.142 252.281 471.749 252.539 471.265 252.73C470.784 252.918 470.19 253.012 469.483 253.012H469.372V252.092Z" fill="#172755"/>
<rect x="501.871" y="223" width="66" height="52" fill="white"/>
<path d="M533.134 252.109V253H527.55V252.221L530.345 249.109C530.688 248.727 530.954 248.402 531.142 248.137C531.333 247.867 531.466 247.627 531.54 247.416C531.618 247.201 531.657 246.982 531.657 246.76C531.657 246.479 531.599 246.225 531.481 245.998C531.368 245.768 531.2 245.584 530.978 245.447C530.755 245.311 530.485 245.242 530.169 245.242C529.79 245.242 529.474 245.316 529.22 245.465C528.97 245.609 528.782 245.812 528.657 246.074C528.532 246.336 528.47 246.637 528.47 246.977H527.386C527.386 246.496 527.491 246.057 527.702 245.658C527.913 245.26 528.226 244.943 528.64 244.709C529.054 244.471 529.563 244.352 530.169 244.352C530.708 244.352 531.169 244.447 531.552 244.639C531.935 244.826 532.228 245.092 532.431 245.436C532.638 245.775 532.741 246.174 532.741 246.631C532.741 246.881 532.698 247.135 532.612 247.393C532.53 247.646 532.415 247.9 532.267 248.154C532.122 248.408 531.952 248.658 531.757 248.904C531.565 249.15 531.36 249.393 531.142 249.631L528.856 252.109H533.134ZM539.649 248.055V249.355C539.649 250.055 539.587 250.645 539.462 251.125C539.337 251.605 539.157 251.992 538.923 252.285C538.688 252.578 538.405 252.791 538.073 252.924C537.745 253.053 537.374 253.117 536.96 253.117C536.632 253.117 536.329 253.076 536.052 252.994C535.774 252.912 535.524 252.781 535.302 252.602C535.083 252.418 534.896 252.18 534.739 251.887C534.583 251.594 534.464 251.238 534.382 250.82C534.3 250.402 534.259 249.914 534.259 249.355V248.055C534.259 247.355 534.321 246.77 534.446 246.297C534.575 245.824 534.757 245.445 534.991 245.16C535.226 244.871 535.507 244.664 535.835 244.539C536.167 244.414 536.538 244.352 536.948 244.352C537.28 244.352 537.585 244.393 537.862 244.475C538.144 244.553 538.394 244.68 538.612 244.855C538.831 245.027 539.017 245.258 539.169 245.547C539.325 245.832 539.444 246.182 539.526 246.596C539.608 247.01 539.649 247.496 539.649 248.055ZM538.56 249.531V247.873C538.56 247.49 538.536 247.154 538.489 246.865C538.446 246.572 538.382 246.322 538.296 246.115C538.21 245.908 538.101 245.74 537.968 245.611C537.839 245.482 537.688 245.389 537.517 245.33C537.349 245.268 537.159 245.236 536.948 245.236C536.69 245.236 536.462 245.285 536.263 245.383C536.063 245.477 535.896 245.627 535.759 245.834C535.626 246.041 535.524 246.312 535.454 246.648C535.384 246.984 535.349 247.393 535.349 247.873V249.531C535.349 249.914 535.37 250.252 535.413 250.545C535.46 250.838 535.528 251.092 535.618 251.307C535.708 251.518 535.817 251.691 535.946 251.828C536.075 251.965 536.224 252.066 536.392 252.133C536.563 252.195 536.753 252.227 536.96 252.227C537.226 252.227 537.458 252.176 537.657 252.074C537.856 251.973 538.022 251.814 538.155 251.6C538.292 251.381 538.394 251.102 538.46 250.762C538.526 250.418 538.56 250.008 538.56 249.531Z" fill="#172755"/>
<rect x="105.871" y="275" width="66" height="52" fill="white"/>
<path d="M137.134 304.109V305H131.55V304.221L134.345 301.109C134.688 300.727 134.954 300.402 135.142 300.137C135.333 299.867 135.466 299.627 135.54 299.416C135.618 299.201 135.657 298.982 135.657 298.76C135.657 298.479 135.599 298.225 135.481 297.998C135.368 297.768 135.2 297.584 134.978 297.447C134.755 297.311 134.485 297.242 134.169 297.242C133.79 297.242 133.474 297.316 133.22 297.465C132.97 297.609 132.782 297.812 132.657 298.074C132.532 298.336 132.47 298.637 132.47 298.977H131.386C131.386 298.496 131.491 298.057 131.702 297.658C131.913 297.26 132.226 296.943 132.64 296.709C133.054 296.471 133.563 296.352 134.169 296.352C134.708 296.352 135.169 296.447 135.552 296.639C135.935 296.826 136.228 297.092 136.431 297.436C136.638 297.775 136.741 298.174 136.741 298.631C136.741 298.881 136.698 299.135 136.612 299.393C136.53 299.646 136.415 299.9 136.267 300.154C136.122 300.408 135.952 300.658 135.757 300.904C135.565 301.15 135.36 301.393 135.142 301.631L132.856 304.109H137.134ZM141.856 296.422V305H140.772V297.775L138.587 298.572V297.594L141.687 296.422H141.856Z" fill="#172755"/>
<rect x="171.871" y="275" width="66" height="52" fill="white"/>
<path d="M203.134 304.109V305H197.55V304.221L200.345 301.109C200.688 300.727 200.954 300.402 201.142 300.137C201.333 299.867 201.466 299.627 201.54 299.416C201.618 299.201 201.657 298.982 201.657 298.76C201.657 298.479 201.599 298.225 201.481 297.998C201.368 297.768 201.2 297.584 200.978 297.447C200.755 297.311 200.485 297.242 200.169 297.242C199.79 297.242 199.474 297.316 199.22 297.465C198.97 297.609 198.782 297.812 198.657 298.074C198.532 298.336 198.47 298.637 198.47 298.977H197.386C197.386 298.496 197.491 298.057 197.702 297.658C197.913 297.26 198.226 296.943 198.64 296.709C199.054 296.471 199.563 296.352 200.169 296.352C200.708 296.352 201.169 296.447 201.552 296.639C201.935 296.826 202.228 297.092 202.431 297.436C202.638 297.775 202.741 298.174 202.741 298.631C202.741 298.881 202.698 299.135 202.612 299.393C202.53 299.646 202.415 299.9 202.267 300.154C202.122 300.408 201.952 300.658 201.757 300.904C201.565 301.15 201.36 301.393 201.142 301.631L198.856 304.109H203.134ZM209.884 304.109V305H204.3V304.221L207.095 301.109C207.438 300.727 207.704 300.402 207.892 300.137C208.083 299.867 208.216 299.627 208.29 299.416C208.368 299.201 208.407 298.982 208.407 298.76C208.407 298.479 208.349 298.225 208.231 297.998C208.118 297.768 207.95 297.584 207.728 297.447C207.505 297.311 207.235 297.242 206.919 297.242C206.54 297.242 206.224 297.316 205.97 297.465C205.72 297.609 205.532 297.812 205.407 298.074C205.282 298.336 205.22 298.637 205.22 298.977H204.136C204.136 298.496 204.241 298.057 204.452 297.658C204.663 297.26 204.976 296.943 205.39 296.709C205.804 296.471 206.313 296.352 206.919 296.352C207.458 296.352 207.919 296.447 208.302 296.639C208.685 296.826 208.978 297.092 209.181 297.436C209.388 297.775 209.491 298.174 209.491 298.631C209.491 298.881 209.448 299.135 209.362 299.393C209.28 299.646 209.165 299.9 209.017 300.154C208.872 300.408 208.702 300.658 208.507 300.904C208.315 301.15 208.11 301.393 207.892 301.631L205.606 304.109H209.884Z" fill="#172755"/>
<rect x="237.871" y="275" width="66" height="52" fill="white"/>
<path d="M269.134 304.109V305H263.55V304.221L266.345 301.109C266.688 300.727 266.954 300.402 267.142 300.137C267.333 299.867 267.466 299.627 267.54 299.416C267.618 299.201 267.657 298.982 267.657 298.76C267.657 298.479 267.599 298.225 267.481 297.998C267.368 297.768 267.2 297.584 266.978 297.447C266.755 297.311 266.485 297.242 266.169 297.242C265.79 297.242 265.474 297.316 265.22 297.465C264.97 297.609 264.782 297.812 264.657 298.074C264.532 298.336 264.47 298.637 264.47 298.977H263.386C263.386 298.496 263.491 298.057 263.702 297.658C263.913 297.26 264.226 296.943 264.64 296.709C265.054 296.471 265.563 296.352 266.169 296.352C266.708 296.352 267.169 296.447 267.552 296.639C267.935 296.826 268.228 297.092 268.431 297.436C268.638 297.775 268.741 298.174 268.741 298.631C268.741 298.881 268.698 299.135 268.612 299.393C268.53 299.646 268.415 299.9 268.267 300.154C268.122 300.408 267.952 300.658 267.757 300.904C267.565 301.15 267.36 301.393 267.142 301.631L264.856 304.109H269.134ZM271.876 300.201H272.649C273.028 300.201 273.341 300.139 273.587 300.014C273.837 299.885 274.022 299.711 274.144 299.492C274.269 299.27 274.331 299.02 274.331 298.742C274.331 298.414 274.276 298.139 274.167 297.916C274.058 297.693 273.894 297.525 273.675 297.412C273.456 297.299 273.179 297.242 272.843 297.242C272.538 297.242 272.269 297.303 272.034 297.424C271.804 297.541 271.622 297.709 271.489 297.928C271.36 298.146 271.296 298.404 271.296 298.701H270.212C270.212 298.268 270.321 297.873 270.54 297.518C270.759 297.162 271.065 296.879 271.46 296.668C271.858 296.457 272.319 296.352 272.843 296.352C273.358 296.352 273.81 296.443 274.196 296.627C274.583 296.807 274.884 297.076 275.099 297.436C275.313 297.791 275.421 298.234 275.421 298.766C275.421 298.98 275.37 299.211 275.269 299.457C275.171 299.699 275.017 299.926 274.806 300.137C274.599 300.348 274.329 300.521 273.997 300.658C273.665 300.791 273.267 300.857 272.802 300.857H271.876V300.201ZM271.876 301.092V300.441H272.802C273.345 300.441 273.794 300.506 274.149 300.635C274.505 300.764 274.784 300.936 274.987 301.15C275.194 301.365 275.339 301.602 275.421 301.859C275.507 302.113 275.55 302.367 275.55 302.621C275.55 303.02 275.481 303.373 275.345 303.682C275.212 303.99 275.022 304.252 274.776 304.467C274.534 304.682 274.249 304.844 273.921 304.953C273.593 305.062 273.235 305.117 272.849 305.117C272.478 305.117 272.128 305.064 271.8 304.959C271.476 304.854 271.188 304.701 270.938 304.502C270.688 304.299 270.493 304.051 270.353 303.758C270.212 303.461 270.142 303.123 270.142 302.744H271.226C271.226 303.041 271.29 303.301 271.419 303.523C271.552 303.746 271.739 303.92 271.981 304.045C272.228 304.166 272.517 304.227 272.849 304.227C273.181 304.227 273.466 304.17 273.704 304.057C273.946 303.939 274.132 303.764 274.261 303.529C274.394 303.295 274.46 303 274.46 302.645C274.46 302.289 274.386 301.998 274.237 301.771C274.089 301.541 273.878 301.371 273.604 301.262C273.335 301.148 273.017 301.092 272.649 301.092H271.876Z" fill="#172755"/>
<rect x="303.871" y="275" width="66" height="52" fill="white"/>
<path d="M335.134 304.109V305H329.55V304.221L332.345 301.109C332.688 300.727 332.954 300.402 333.142 300.137C333.333 299.867 333.466 299.627 333.54 299.416C333.618 299.201 333.657 298.982 333.657 298.76C333.657 298.479 333.599 298.225 333.481 297.998C333.368 297.768 333.2 297.584 332.978 297.447C332.755 297.311 332.485 297.242 332.169 297.242C331.79 297.242 331.474 297.316 331.22 297.465C330.97 297.609 330.782 297.812 330.657 298.074C330.532 298.336 330.47 298.637 330.47 298.977H329.386C329.386 298.496 329.491 298.057 329.702 297.658C329.913 297.26 330.226 296.943 330.64 296.709C331.054 296.471 331.563 296.352 332.169 296.352C332.708 296.352 333.169 296.447 333.552 296.639C333.935 296.826 334.228 297.092 334.431 297.436C334.638 297.775 334.741 298.174 334.741 298.631C334.741 298.881 334.698 299.135 334.612 299.393C334.53 299.646 334.415 299.9 334.267 300.154C334.122 300.408 333.952 300.658 333.757 300.904C333.565 301.15 333.36 301.393 333.142 301.631L330.856 304.109H335.134ZM342.06 302.129V303.02H335.896V302.381L339.716 296.469H340.601L339.651 298.18L337.126 302.129H342.06ZM340.87 296.469V305H339.786V296.469H340.87Z" fill="#172755"/>
<rect x="369.871" y="275" width="66" height="52" fill="white"/>
<path d="M401.134 304.109V305H395.55V304.221L398.345 301.109C398.688 300.727 398.954 300.402 399.142 300.137C399.333 299.867 399.466 299.627 399.54 299.416C399.618 299.201 399.657 298.982 399.657 298.76C399.657 298.479 399.599 298.225 399.481 297.998C399.368 297.768 399.2 297.584 398.978 297.447C398.755 297.311 398.485 297.242 398.169 297.242C397.79 297.242 397.474 297.316 397.22 297.465C396.97 297.609 396.782 297.812 396.657 298.074C396.532 298.336 396.47 298.637 396.47 298.977H395.386C395.386 298.496 395.491 298.057 395.702 297.658C395.913 297.26 396.226 296.943 396.64 296.709C397.054 296.471 397.563 296.352 398.169 296.352C398.708 296.352 399.169 296.447 399.552 296.639C399.935 296.826 400.228 297.092 400.431 297.436C400.638 297.775 400.741 298.174 400.741 298.631C400.741 298.881 400.698 299.135 400.612 299.393C400.53 299.646 400.415 299.9 400.267 300.154C400.122 300.408 399.952 300.658 399.757 300.904C399.565 301.15 399.36 301.393 399.142 301.631L396.856 304.109H401.134ZM403.665 300.939L402.798 300.717L403.226 296.469H407.603V297.471H404.146L403.888 299.791C404.044 299.701 404.241 299.617 404.479 299.539C404.722 299.461 404.999 299.422 405.312 299.422C405.706 299.422 406.06 299.49 406.372 299.627C406.685 299.76 406.95 299.951 407.169 300.201C407.392 300.451 407.562 300.752 407.679 301.104C407.796 301.455 407.854 301.848 407.854 302.281C407.854 302.691 407.798 303.068 407.685 303.412C407.575 303.756 407.409 304.057 407.187 304.314C406.964 304.568 406.683 304.766 406.343 304.906C406.007 305.047 405.61 305.117 405.153 305.117C404.81 305.117 404.483 305.07 404.175 304.977C403.87 304.879 403.597 304.732 403.354 304.537C403.116 304.338 402.921 304.092 402.769 303.799C402.62 303.502 402.526 303.154 402.487 302.756H403.519C403.565 303.076 403.659 303.346 403.8 303.564C403.94 303.783 404.124 303.949 404.351 304.062C404.581 304.172 404.849 304.227 405.153 304.227C405.411 304.227 405.64 304.182 405.839 304.092C406.038 304.002 406.206 303.873 406.343 303.705C406.479 303.537 406.583 303.334 406.653 303.096C406.728 302.857 406.765 302.59 406.765 302.293C406.765 302.023 406.728 301.773 406.653 301.543C406.579 301.312 406.468 301.111 406.319 300.939C406.175 300.768 405.997 300.635 405.786 300.541C405.575 300.443 405.333 300.395 405.06 300.395C404.696 300.395 404.421 300.443 404.233 300.541C404.05 300.639 403.86 300.771 403.665 300.939Z" fill="#172755"/>
<rect x="435.871" y="275" width="66" height="52" fill="white"/>
<path d="M467.134 304.109V305H461.55V304.221L464.345 301.109C464.688 300.727 464.954 300.402 465.142 300.137C465.333 299.867 465.466 299.627 465.54 299.416C465.618 299.201 465.657 298.982 465.657 298.76C465.657 298.479 465.599 298.225 465.481 297.998C465.368 297.768 465.2 297.584 464.978 297.447C464.755 297.311 464.485 297.242 464.169 297.242C463.79 297.242 463.474 297.316 463.22 297.465C462.97 297.609 462.782 297.812 462.657 298.074C462.532 298.336 462.47 298.637 462.47 298.977H461.386C461.386 298.496 461.491 298.057 461.702 297.658C461.913 297.26 462.226 296.943 462.64 296.709C463.054 296.471 463.563 296.352 464.169 296.352C464.708 296.352 465.169 296.447 465.552 296.639C465.935 296.826 466.228 297.092 466.431 297.436C466.638 297.775 466.741 298.174 466.741 298.631C466.741 298.881 466.698 299.135 466.612 299.393C466.53 299.646 466.415 299.9 466.267 300.154C466.122 300.408 465.952 300.658 465.757 300.904C465.565 301.15 465.36 301.393 465.142 301.631L462.856 304.109H467.134ZM472.454 296.457H472.548V297.377H472.454C471.88 297.377 471.399 297.471 471.013 297.658C470.626 297.842 470.319 298.09 470.093 298.402C469.866 298.711 469.702 299.059 469.601 299.445C469.503 299.832 469.454 300.225 469.454 300.623V301.877C469.454 302.256 469.499 302.592 469.589 302.885C469.679 303.174 469.802 303.418 469.958 303.617C470.114 303.816 470.29 303.967 470.485 304.068C470.685 304.17 470.892 304.221 471.106 304.221C471.356 304.221 471.579 304.174 471.774 304.08C471.97 303.982 472.134 303.848 472.267 303.676C472.403 303.5 472.507 303.293 472.577 303.055C472.647 302.816 472.683 302.555 472.683 302.27C472.683 302.016 472.651 301.771 472.589 301.537C472.526 301.299 472.431 301.088 472.302 300.904C472.173 300.717 472.011 300.57 471.815 300.465C471.624 300.355 471.396 300.301 471.13 300.301C470.829 300.301 470.548 300.375 470.286 300.523C470.028 300.668 469.815 300.859 469.647 301.098C469.483 301.332 469.39 301.588 469.366 301.865L468.792 301.859C468.847 301.422 468.948 301.049 469.097 300.74C469.249 300.428 469.437 300.174 469.659 299.979C469.886 299.779 470.138 299.635 470.415 299.545C470.696 299.451 470.993 299.404 471.306 299.404C471.731 299.404 472.099 299.484 472.407 299.645C472.716 299.805 472.97 300.02 473.169 300.289C473.368 300.555 473.515 300.855 473.608 301.191C473.706 301.523 473.755 301.865 473.755 302.217C473.755 302.619 473.698 302.996 473.585 303.348C473.472 303.699 473.302 304.008 473.075 304.273C472.853 304.539 472.577 304.746 472.249 304.895C471.921 305.043 471.54 305.117 471.106 305.117C470.646 305.117 470.243 305.023 469.899 304.836C469.556 304.645 469.271 304.391 469.044 304.074C468.817 303.758 468.647 303.406 468.534 303.02C468.421 302.633 468.364 302.24 468.364 301.842V301.332C468.364 300.73 468.425 300.141 468.546 299.562C468.667 298.984 468.876 298.461 469.173 297.992C469.474 297.523 469.89 297.15 470.421 296.873C470.952 296.596 471.63 296.457 472.454 296.457Z" fill="#172755"/>
<rect x="501.871" y="275" width="66" height="52" fill="white"/>
<path d="M533.134 304.109V305H527.55V304.221L530.345 301.109C530.688 300.727 530.954 300.402 531.142 300.137C531.333 299.867 531.466 299.627 531.54 299.416C531.618 299.201 531.657 298.982 531.657 298.76C531.657 298.479 531.599 298.225 531.481 297.998C531.368 297.768 531.2 297.584 530.978 297.447C530.755 297.311 530.485 297.242 530.169 297.242C529.79 297.242 529.474 297.316 529.22 297.465C528.97 297.609 528.782 297.812 528.657 298.074C528.532 298.336 528.47 298.637 528.47 298.977H527.386C527.386 298.496 527.491 298.057 527.702 297.658C527.913 297.26 528.226 296.943 528.64 296.709C529.054 296.471 529.563 296.352 530.169 296.352C530.708 296.352 531.169 296.447 531.552 296.639C531.935 296.826 532.228 297.092 532.431 297.436C532.638 297.775 532.741 298.174 532.741 298.631C532.741 298.881 532.698 299.135 532.612 299.393C532.53 299.646 532.415 299.9 532.267 300.154C532.122 300.408 531.952 300.658 531.757 300.904C531.565 301.15 531.36 301.393 531.142 301.631L528.856 304.109H533.134ZM539.808 296.469V297.078L536.274 305H535.132L538.659 297.359H534.042V296.469H539.808Z" fill="#172755"/>
<rect x="105.871" y="327" width="66" height="52" fill="white"/>
<path d="M137.134 356.109V357H131.55V356.221L134.345 353.109C134.688 352.727 134.954 352.402 135.142 352.137C135.333 351.867 135.466 351.627 135.54 351.416C135.618 351.201 135.657 350.982 135.657 350.76C135.657 350.479 135.599 350.225 135.481 349.998C135.368 349.768 135.2 349.584 134.978 349.447C134.755 349.311 134.485 349.242 134.169 349.242C133.79 349.242 133.474 349.316 133.22 349.465C132.97 349.609 132.782 349.812 132.657 350.074C132.532 350.336 132.47 350.637 132.47 350.977H131.386C131.386 350.496 131.491 350.057 131.702 349.658C131.913 349.26 132.226 348.943 132.64 348.709C133.054 348.471 133.563 348.352 134.169 348.352C134.708 348.352 135.169 348.447 135.552 348.639C135.935 348.826 136.228 349.092 136.431 349.436C136.638 349.775 136.741 350.174 136.741 350.631C136.741 350.881 136.698 351.135 136.612 351.393C136.53 351.646 136.415 351.9 136.267 352.154C136.122 352.408 135.952 352.658 135.757 352.904C135.565 353.15 135.36 353.393 135.142 353.631L132.856 356.109H137.134ZM143.673 354.691C143.673 355.211 143.552 355.652 143.31 356.016C143.071 356.375 142.747 356.648 142.337 356.836C141.931 357.023 141.472 357.117 140.96 357.117C140.448 357.117 139.987 357.023 139.577 356.836C139.167 356.648 138.843 356.375 138.604 356.016C138.366 355.652 138.247 355.211 138.247 354.691C138.247 354.352 138.312 354.041 138.44 353.76C138.573 353.475 138.759 353.227 138.997 353.016C139.239 352.805 139.524 352.643 139.853 352.529C140.185 352.412 140.55 352.354 140.948 352.354C141.472 352.354 141.938 352.455 142.349 352.658C142.759 352.857 143.081 353.133 143.315 353.484C143.554 353.836 143.673 354.238 143.673 354.691ZM142.583 354.668C142.583 354.352 142.515 354.072 142.378 353.83C142.241 353.584 142.05 353.393 141.804 353.256C141.558 353.119 141.272 353.051 140.948 353.051C140.616 353.051 140.329 353.119 140.087 353.256C139.849 353.393 139.663 353.584 139.53 353.83C139.397 354.072 139.331 354.352 139.331 354.668C139.331 354.996 139.396 355.277 139.524 355.512C139.657 355.742 139.845 355.92 140.087 356.045C140.333 356.166 140.624 356.227 140.96 356.227C141.296 356.227 141.585 356.166 141.827 356.045C142.069 355.92 142.255 355.742 142.384 355.512C142.517 355.277 142.583 354.996 142.583 354.668ZM143.474 350.689C143.474 351.104 143.364 351.477 143.146 351.809C142.927 352.141 142.628 352.402 142.249 352.594C141.87 352.785 141.44 352.881 140.96 352.881C140.472 352.881 140.036 352.785 139.653 352.594C139.274 352.402 138.978 352.141 138.763 351.809C138.548 351.477 138.44 351.104 138.44 350.689C138.44 350.193 138.548 349.771 138.763 349.424C138.981 349.076 139.28 348.811 139.659 348.627C140.038 348.443 140.47 348.352 140.954 348.352C141.442 348.352 141.876 348.443 142.255 348.627C142.634 348.811 142.931 349.076 143.146 349.424C143.364 349.771 143.474 350.193 143.474 350.689ZM142.39 350.707C142.39 350.422 142.329 350.17 142.208 349.951C142.087 349.732 141.919 349.561 141.704 349.436C141.489 349.307 141.239 349.242 140.954 349.242C140.669 349.242 140.419 349.303 140.204 349.424C139.993 349.541 139.827 349.709 139.706 349.928C139.589 350.146 139.53 350.406 139.53 350.707C139.53 351 139.589 351.256 139.706 351.475C139.827 351.693 139.995 351.863 140.21 351.984C140.425 352.105 140.675 352.166 140.96 352.166C141.245 352.166 141.493 352.105 141.704 351.984C141.919 351.863 142.087 351.693 142.208 351.475C142.329 351.256 142.39 351 142.39 350.707Z" fill="#172755"/>
<rect x="171.871" y="327" width="66" height="52" fill="white"/>
<path d="M203.134 356.109V357H197.55V356.221L200.345 353.109C200.688 352.727 200.954 352.402 201.142 352.137C201.333 351.867 201.466 351.627 201.54 351.416C201.618 351.201 201.657 350.982 201.657 350.76C201.657 350.479 201.599 350.225 201.481 349.998C201.368 349.768 201.2 349.584 200.978 349.447C200.755 349.311 200.485 349.242 200.169 349.242C199.79 349.242 199.474 349.316 199.22 349.465C198.97 349.609 198.782 349.812 198.657 350.074C198.532 350.336 198.47 350.637 198.47 350.977H197.386C197.386 350.496 197.491 350.057 197.702 349.658C197.913 349.26 198.226 348.943 198.64 348.709C199.054 348.471 199.563 348.352 200.169 348.352C200.708 348.352 201.169 348.447 201.552 348.639C201.935 348.826 202.228 349.092 202.431 349.436C202.638 349.775 202.741 350.174 202.741 350.631C202.741 350.881 202.698 351.135 202.612 351.393C202.53 351.646 202.415 351.9 202.267 352.154C202.122 352.408 201.952 352.658 201.757 352.904C201.565 353.15 201.36 353.393 201.142 353.631L198.856 356.109H203.134ZM205.372 356.092H205.483C206.108 356.092 206.616 356.004 207.007 355.828C207.397 355.652 207.698 355.416 207.909 355.119C208.12 354.822 208.265 354.488 208.343 354.117C208.421 353.742 208.46 353.357 208.46 352.963V351.656C208.46 351.27 208.415 350.926 208.325 350.625C208.239 350.324 208.118 350.072 207.962 349.869C207.81 349.666 207.636 349.512 207.44 349.406C207.245 349.301 207.038 349.248 206.819 349.248C206.569 349.248 206.345 349.299 206.146 349.4C205.95 349.498 205.784 349.637 205.647 349.816C205.515 349.996 205.413 350.207 205.343 350.449C205.272 350.691 205.237 350.955 205.237 351.24C205.237 351.494 205.269 351.74 205.331 351.979C205.394 352.217 205.489 352.432 205.618 352.623C205.747 352.814 205.907 352.967 206.099 353.08C206.294 353.189 206.522 353.244 206.784 353.244C207.026 353.244 207.253 353.197 207.464 353.104C207.679 353.006 207.868 352.875 208.032 352.711C208.2 352.543 208.333 352.354 208.431 352.143C208.532 351.932 208.591 351.711 208.606 351.48H209.122C209.122 351.805 209.058 352.125 208.929 352.441C208.804 352.754 208.628 353.039 208.401 353.297C208.175 353.555 207.909 353.762 207.604 353.918C207.3 354.07 206.968 354.146 206.608 354.146C206.187 354.146 205.821 354.064 205.513 353.9C205.204 353.736 204.95 353.518 204.751 353.244C204.556 352.971 204.409 352.666 204.312 352.33C204.218 351.99 204.171 351.646 204.171 351.299C204.171 350.893 204.228 350.512 204.341 350.156C204.454 349.801 204.622 349.488 204.845 349.219C205.067 348.945 205.343 348.732 205.671 348.58C206.003 348.428 206.386 348.352 206.819 348.352C207.308 348.352 207.724 348.449 208.067 348.645C208.411 348.84 208.69 349.102 208.905 349.43C209.124 349.758 209.284 350.127 209.386 350.537C209.487 350.947 209.538 351.369 209.538 351.803V352.195C209.538 352.637 209.509 353.086 209.45 353.543C209.396 353.996 209.288 354.43 209.128 354.844C208.972 355.258 208.743 355.629 208.442 355.957C208.142 356.281 207.749 356.539 207.265 356.73C206.784 356.918 206.19 357.012 205.483 357.012H205.372V356.092Z" fill="#172755"/>
<rect x="237.871" y="327" width="66" height="52" fill="white"/>
<path d="M265.126 352.201H265.899C266.278 352.201 266.591 352.139 266.837 352.014C267.087 351.885 267.272 351.711 267.394 351.492C267.519 351.27 267.581 351.02 267.581 350.742C267.581 350.414 267.526 350.139 267.417 349.916C267.308 349.693 267.144 349.525 266.925 349.412C266.706 349.299 266.429 349.242 266.093 349.242C265.788 349.242 265.519 349.303 265.284 349.424C265.054 349.541 264.872 349.709 264.739 349.928C264.61 350.146 264.546 350.404 264.546 350.701H263.462C263.462 350.268 263.571 349.873 263.79 349.518C264.009 349.162 264.315 348.879 264.71 348.668C265.108 348.457 265.569 348.352 266.093 348.352C266.608 348.352 267.06 348.443 267.446 348.627C267.833 348.807 268.134 349.076 268.349 349.436C268.563 349.791 268.671 350.234 268.671 350.766C268.671 350.98 268.62 351.211 268.519 351.457C268.421 351.699 268.267 351.926 268.056 352.137C267.849 352.348 267.579 352.521 267.247 352.658C266.915 352.791 266.517 352.857 266.052 352.857H265.126V352.201ZM265.126 353.092V352.441H266.052C266.595 352.441 267.044 352.506 267.399 352.635C267.755 352.764 268.034 352.936 268.237 353.15C268.444 353.365 268.589 353.602 268.671 353.859C268.757 354.113 268.8 354.367 268.8 354.621C268.8 355.02 268.731 355.373 268.595 355.682C268.462 355.99 268.272 356.252 268.026 356.467C267.784 356.682 267.499 356.844 267.171 356.953C266.843 357.062 266.485 357.117 266.099 357.117C265.728 357.117 265.378 357.064 265.05 356.959C264.726 356.854 264.438 356.701 264.188 356.502C263.938 356.299 263.743 356.051 263.603 355.758C263.462 355.461 263.392 355.123 263.392 354.744H264.476C264.476 355.041 264.54 355.301 264.669 355.523C264.802 355.746 264.989 355.92 265.231 356.045C265.478 356.166 265.767 356.227 266.099 356.227C266.431 356.227 266.716 356.17 266.954 356.057C267.196 355.939 267.382 355.764 267.511 355.529C267.644 355.295 267.71 355 267.71 354.645C267.71 354.289 267.636 353.998 267.487 353.771C267.339 353.541 267.128 353.371 266.854 353.262C266.585 353.148 266.267 353.092 265.899 353.092H265.126ZM275.649 352.055V353.355C275.649 354.055 275.587 354.645 275.462 355.125C275.337 355.605 275.157 355.992 274.923 356.285C274.688 356.578 274.405 356.791 274.073 356.924C273.745 357.053 273.374 357.117 272.96 357.117C272.632 357.117 272.329 357.076 272.052 356.994C271.774 356.912 271.524 356.781 271.302 356.602C271.083 356.418 270.896 356.18 270.739 355.887C270.583 355.594 270.464 355.238 270.382 354.82C270.3 354.402 270.259 353.914 270.259 353.355V352.055C270.259 351.355 270.321 350.77 270.446 350.297C270.575 349.824 270.757 349.445 270.991 349.16C271.226 348.871 271.507 348.664 271.835 348.539C272.167 348.414 272.538 348.352 272.948 348.352C273.28 348.352 273.585 348.393 273.862 348.475C274.144 348.553 274.394 348.68 274.612 348.855C274.831 349.027 275.017 349.258 275.169 349.547C275.325 349.832 275.444 350.182 275.526 350.596C275.608 351.01 275.649 351.496 275.649 352.055ZM274.56 353.531V351.873C274.56 351.49 274.536 351.154 274.489 350.865C274.446 350.572 274.382 350.322 274.296 350.115C274.21 349.908 274.101 349.74 273.968 349.611C273.839 349.482 273.688 349.389 273.517 349.33C273.349 349.268 273.159 349.236 272.948 349.236C272.69 349.236 272.462 349.285 272.263 349.383C272.063 349.477 271.896 349.627 271.759 349.834C271.626 350.041 271.524 350.312 271.454 350.648C271.384 350.984 271.349 351.393 271.349 351.873V353.531C271.349 353.914 271.37 354.252 271.413 354.545C271.46 354.838 271.528 355.092 271.618 355.307C271.708 355.518 271.817 355.691 271.946 355.828C272.075 355.965 272.224 356.066 272.392 356.133C272.563 356.195 272.753 356.227 272.96 356.227C273.226 356.227 273.458 356.176 273.657 356.074C273.856 355.973 274.022 355.814 274.155 355.6C274.292 355.381 274.394 355.102 274.46 354.762C274.526 354.418 274.56 354.008 274.56 353.531Z" fill="#172755"/>
<rect x="303.871" y="327" width="66" height="52" fill="white"/>
<path d="M331.126 352.201H331.899C332.278 352.201 332.591 352.139 332.837 352.014C333.087 351.885 333.272 351.711 333.394 351.492C333.519 351.27 333.581 351.02 333.581 350.742C333.581 350.414 333.526 350.139 333.417 349.916C333.308 349.693 333.144 349.525 332.925 349.412C332.706 349.299 332.429 349.242 332.093 349.242C331.788 349.242 331.519 349.303 331.284 349.424C331.054 349.541 330.872 349.709 330.739 349.928C330.61 350.146 330.546 350.404 330.546 350.701H329.462C329.462 350.268 329.571 349.873 329.79 349.518C330.009 349.162 330.315 348.879 330.71 348.668C331.108 348.457 331.569 348.352 332.093 348.352C332.608 348.352 333.06 348.443 333.446 348.627C333.833 348.807 334.134 349.076 334.349 349.436C334.563 349.791 334.671 350.234 334.671 350.766C334.671 350.98 334.62 351.211 334.519 351.457C334.421 351.699 334.267 351.926 334.056 352.137C333.849 352.348 333.579 352.521 333.247 352.658C332.915 352.791 332.517 352.857 332.052 352.857H331.126V352.201ZM331.126 353.092V352.441H332.052C332.595 352.441 333.044 352.506 333.399 352.635C333.755 352.764 334.034 352.936 334.237 353.15C334.444 353.365 334.589 353.602 334.671 353.859C334.757 354.113 334.8 354.367 334.8 354.621C334.8 355.02 334.731 355.373 334.595 355.682C334.462 355.99 334.272 356.252 334.026 356.467C333.784 356.682 333.499 356.844 333.171 356.953C332.843 357.062 332.485 357.117 332.099 357.117C331.728 357.117 331.378 357.064 331.05 356.959C330.726 356.854 330.438 356.701 330.188 356.502C329.938 356.299 329.743 356.051 329.603 355.758C329.462 355.461 329.392 355.123 329.392 354.744H330.476C330.476 355.041 330.54 355.301 330.669 355.523C330.802 355.746 330.989 355.92 331.231 356.045C331.478 356.166 331.767 356.227 332.099 356.227C332.431 356.227 332.716 356.17 332.954 356.057C333.196 355.939 333.382 355.764 333.511 355.529C333.644 355.295 333.71 355 333.71 354.645C333.71 354.289 333.636 353.998 333.487 353.771C333.339 353.541 333.128 353.371 332.854 353.262C332.585 353.148 332.267 353.092 331.899 353.092H331.126ZM339.856 348.422V357H338.772V349.775L336.587 350.572V349.594L339.687 348.422H339.856Z" fill="#172755"/>
<rect x="369.871" y="327" width="66" height="52" fill="white"/>
<rect x="435.871" y="327" width="66" height="52" fill="white"/>
<rect x="501.871" y="327" width="66" height="52" fill="white"/>
<path d="M124.566 78.4688H125.662L128.457 85.4238L131.246 78.4688H132.347L128.878 87H128.023L124.566 78.4688ZM124.208 78.4688H125.175L125.333 83.6719V87H124.208V78.4688ZM131.732 78.4688H132.699V87H131.574V83.6719L131.732 78.4688ZM141.253 82.4648V83.0039C141.253 83.6445 141.173 84.2188 141.013 84.7266C140.853 85.2344 140.623 85.666 140.322 86.0215C140.021 86.377 139.66 86.6484 139.238 86.8359C138.82 87.0234 138.351 87.1172 137.832 87.1172C137.328 87.1172 136.865 87.0234 136.443 86.8359C136.025 86.6484 135.662 86.377 135.353 86.0215C135.048 85.666 134.812 85.2344 134.644 84.7266C134.476 84.2188 134.392 83.6445 134.392 83.0039V82.4648C134.392 81.8242 134.474 81.252 134.638 80.748C134.806 80.2402 135.042 79.8086 135.347 79.4531C135.652 79.0938 136.013 78.8203 136.431 78.6328C136.853 78.4453 137.316 78.3516 137.82 78.3516C138.339 78.3516 138.808 78.4453 139.226 78.6328C139.648 78.8203 140.009 79.0938 140.31 79.4531C140.615 79.8086 140.847 80.2402 141.007 80.748C141.171 81.252 141.253 81.8242 141.253 82.4648ZM140.134 83.0039V82.4531C140.134 81.9453 140.082 81.4961 139.976 81.1055C139.875 80.7148 139.724 80.3867 139.525 80.1211C139.326 79.8555 139.082 79.6543 138.792 79.5176C138.507 79.3809 138.183 79.3125 137.82 79.3125C137.468 79.3125 137.15 79.3809 136.865 79.5176C136.583 79.6543 136.341 79.8555 136.138 80.1211C135.939 80.3867 135.785 80.7148 135.675 81.1055C135.566 81.4961 135.511 81.9453 135.511 82.4531V83.0039C135.511 83.5156 135.566 83.9688 135.675 84.3633C135.785 84.7539 135.941 85.084 136.144 85.3535C136.351 85.6191 136.595 85.8203 136.876 85.957C137.162 86.0938 137.48 86.1621 137.832 86.1621C138.199 86.1621 138.525 86.0938 138.81 85.957C139.095 85.8203 139.335 85.6191 139.531 85.3535C139.73 85.084 139.88 84.7539 139.982 84.3633C140.083 83.9688 140.134 83.5156 140.134 83.0039ZM149.509 78.4688V87H148.373L144.078 80.4199V87H142.947V78.4688H144.078L148.39 85.0664V78.4688H149.509Z" fill="#8794BA"/>
<path d="M196.132 78.4688V87H195.019V78.4688H196.132ZM198.875 78.4688V79.3945H192.283V78.4688H198.875ZM205.021 78.4688H206.146V84.2402C206.146 84.8809 206.003 85.4141 205.718 85.8398C205.433 86.2656 205.054 86.5859 204.582 86.8008C204.113 87.0117 203.603 87.1172 203.052 87.1172C202.474 87.1172 201.951 87.0117 201.482 86.8008C201.017 86.5859 200.648 86.2656 200.375 85.8398C200.105 85.4141 199.97 84.8809 199.97 84.2402V78.4688H201.089V84.2402C201.089 84.6855 201.171 85.0527 201.335 85.3418C201.5 85.6309 201.728 85.8457 202.021 85.9863C202.318 86.127 202.662 86.1973 203.052 86.1973C203.447 86.1973 203.791 86.127 204.083 85.9863C204.38 85.8457 204.611 85.6309 204.775 85.3418C204.939 85.0527 205.021 84.6855 205.021 84.2402V78.4688ZM213.341 86.0801V87H208.824V86.0801H213.341ZM209.052 78.4688V87H207.921V78.4688H209.052ZM212.744 82.1367V83.0566H208.824V82.1367H212.744ZM213.283 78.4688V79.3945H208.824V78.4688H213.283Z" fill="#8794BA"/>
<path d="M259.431 84.4219L261.125 78.4688H261.945L261.47 80.7832L259.648 87H258.833L259.431 84.4219ZM257.679 78.4688L259.027 84.3047L259.431 87H258.623L256.554 78.4688H257.679ZM264.136 84.2988L265.455 78.4688H266.585L264.523 87H263.714L264.136 84.2988ZM262.068 78.4688L263.714 84.4219L264.312 87H263.498L261.74 80.7832L261.259 78.4688H262.068ZM273.259 86.0801V87H268.742V86.0801H273.259ZM268.97 78.4688V87H267.839V78.4688H268.97ZM272.662 82.1367V83.0566H268.742V82.1367H272.662ZM273.201 78.4688V79.3945H268.742V78.4688H273.201ZM276.968 87H275.187L275.199 86.0801H276.968C277.578 86.0801 278.085 85.9531 278.492 85.6992C278.898 85.4414 279.203 85.082 279.406 84.6211C279.613 84.1562 279.716 83.6133 279.716 82.9922V82.4707C279.716 81.9824 279.658 81.5488 279.541 81.1699C279.423 80.7871 279.251 80.4648 279.025 80.2031C278.798 79.9375 278.521 79.7363 278.193 79.5996C277.869 79.4629 277.496 79.3945 277.074 79.3945H275.152V78.4688H277.074C277.632 78.4688 278.142 78.5625 278.603 78.75C279.064 78.9336 279.46 79.2012 279.792 79.5527C280.128 79.9004 280.386 80.3223 280.566 80.8184C280.746 81.3105 280.835 81.8652 280.835 82.4824V82.9922C280.835 83.6094 280.746 84.166 280.566 84.6621C280.386 85.1543 280.126 85.5742 279.787 85.9219C279.451 86.2695 279.044 86.5371 278.568 86.7246C278.095 86.9082 277.562 87 276.968 87ZM275.791 78.4688V87H274.66V78.4688H275.791Z" fill="#8794BA"/>
<path d="M327.259 78.4688V87H326.146V78.4688H327.259ZM330.001 78.4688V79.3945H323.41V78.4688H330.001ZM336.839 82.1367V83.0566H332.222V82.1367H336.839ZM332.398 78.4688V87H331.267V78.4688H332.398ZM337.824 78.4688V87H336.699V78.4688H337.824ZM344.714 78.4688H345.839V84.2402C345.839 84.8809 345.697 85.4141 345.412 85.8398C345.126 86.2656 344.748 86.5859 344.275 86.8008C343.806 87.0117 343.296 87.1172 342.746 87.1172C342.167 87.1172 341.644 87.0117 341.175 86.8008C340.71 86.5859 340.341 86.2656 340.068 85.8398C339.798 85.4141 339.664 84.8809 339.664 84.2402V78.4688H340.783V84.2402C340.783 84.6855 340.865 85.0527 341.029 85.3418C341.193 85.6309 341.421 85.8457 341.714 85.9863C342.011 86.127 342.355 86.1973 342.746 86.1973C343.14 86.1973 343.484 86.127 343.777 85.9863C344.074 85.8457 344.304 85.6309 344.468 85.3418C344.632 85.0527 344.714 84.6855 344.714 84.2402V78.4688Z" fill="#8794BA"/>
<path d="M394.343 78.4688V87H393.212V78.4688H394.343ZM397.917 82.3066V83.2324H394.097V82.3066H397.917ZM398.498 78.4688V79.3945H394.097V78.4688H398.498ZM399.845 78.4688H402.669C403.31 78.4688 403.851 78.5664 404.292 78.7617C404.738 78.957 405.076 79.2461 405.306 79.6289C405.541 80.0078 405.658 80.4746 405.658 81.0293C405.658 81.4199 405.578 81.7773 405.417 82.1016C405.261 82.4219 405.035 82.6953 404.738 82.9219C404.445 83.1445 404.093 83.3105 403.683 83.4199L403.367 83.543H400.712L400.701 82.623H402.705C403.111 82.623 403.449 82.5527 403.718 82.4121C403.988 82.2676 404.191 82.0742 404.328 81.832C404.464 81.5898 404.533 81.3223 404.533 81.0293C404.533 80.7012 404.468 80.4141 404.339 80.168C404.21 79.9219 404.007 79.7324 403.73 79.5996C403.457 79.4629 403.103 79.3945 402.669 79.3945H400.976V87H399.845V78.4688ZM404.832 87L402.757 83.1328L403.935 83.127L406.039 86.9297V87H404.832ZM408.453 78.4688V87H407.322V78.4688H408.453Z" fill="#8794BA"/>
<path d="M461.732 84.8438C461.732 84.6445 461.701 84.4688 461.638 84.3164C461.58 84.1602 461.474 84.0195 461.322 83.8945C461.173 83.7695 460.966 83.6504 460.701 83.5371C460.439 83.4238 460.107 83.3086 459.705 83.1914C459.283 83.0664 458.902 82.9277 458.562 82.7754C458.222 82.6191 457.931 82.4414 457.689 82.2422C457.447 82.043 457.261 81.8145 457.132 81.5566C457.003 81.2988 456.939 81.0039 456.939 80.6719C456.939 80.3398 457.007 80.0332 457.144 79.752C457.281 79.4707 457.476 79.2266 457.73 79.0195C457.988 78.8086 458.294 78.6445 458.65 78.5273C459.005 78.4102 459.402 78.3516 459.839 78.3516C460.48 78.3516 461.023 78.4746 461.468 78.7207C461.917 78.9629 462.259 79.2812 462.494 79.6758C462.728 80.0664 462.845 80.4844 462.845 80.9297H461.72C461.72 80.6094 461.652 80.3262 461.515 80.0801C461.378 79.8301 461.171 79.6348 460.894 79.4941C460.617 79.3496 460.265 79.2773 459.839 79.2773C459.437 79.2773 459.105 79.3379 458.843 79.459C458.582 79.5801 458.386 79.7441 458.257 79.9512C458.132 80.1582 458.07 80.3945 458.07 80.6602C458.07 80.8398 458.107 81.0039 458.181 81.1523C458.259 81.2969 458.378 81.4316 458.539 81.5566C458.703 81.6816 458.91 81.7969 459.16 81.9023C459.414 82.0078 459.716 82.1094 460.068 82.207C460.552 82.3438 460.97 82.4961 461.322 82.6641C461.673 82.832 461.962 83.0215 462.189 83.2324C462.419 83.4395 462.589 83.6758 462.699 83.9414C462.812 84.2031 462.869 84.5 462.869 84.832C462.869 85.1797 462.798 85.4941 462.658 85.7754C462.517 86.0566 462.316 86.2969 462.054 86.4961C461.792 86.6953 461.478 86.8496 461.111 86.959C460.748 87.0645 460.341 87.1172 459.892 87.1172C459.498 87.1172 459.109 87.0625 458.726 86.9531C458.347 86.8438 458.001 86.6797 457.689 86.4609C457.38 86.2422 457.132 85.9727 456.945 85.6523C456.761 85.3281 456.669 84.9531 456.669 84.5273H457.794C457.794 84.8203 457.851 85.0723 457.964 85.2832C458.078 85.4902 458.232 85.6621 458.427 85.7988C458.626 85.9355 458.851 86.0371 459.101 86.1035C459.355 86.166 459.619 86.1973 459.892 86.1973C460.287 86.1973 460.621 86.1426 460.894 86.0332C461.167 85.9238 461.375 85.7676 461.515 85.5645C461.66 85.3613 461.732 85.1211 461.732 84.8438ZM467.468 79.2246L464.644 87H463.49L466.742 78.4688H467.486L467.468 79.2246ZM469.835 87L467.005 79.2246L466.988 78.4688H467.732L470.996 87H469.835ZM469.689 83.8418V84.7676H464.896V83.8418H469.689ZM474.529 78.4688V87H473.416V78.4688H474.529ZM477.271 78.4688V79.3945H470.679V78.4688H477.271Z" fill="#8794BA"/>
<path d="M526.671 84.8438C526.671 84.6445 526.64 84.4688 526.578 84.3164C526.519 84.1602 526.414 84.0195 526.261 83.8945C526.113 83.7695 525.906 83.6504 525.64 83.5371C525.378 83.4238 525.046 83.3086 524.644 83.1914C524.222 83.0664 523.841 82.9277 523.501 82.7754C523.162 82.6191 522.871 82.4414 522.628 82.2422C522.386 82.043 522.201 81.8145 522.072 81.5566C521.943 81.2988 521.878 81.0039 521.878 80.6719C521.878 80.3398 521.947 80.0332 522.083 79.752C522.22 79.4707 522.416 79.2266 522.669 79.0195C522.927 78.8086 523.234 78.6445 523.589 78.5273C523.945 78.4102 524.341 78.3516 524.779 78.3516C525.419 78.3516 525.962 78.4746 526.408 78.7207C526.857 78.9629 527.199 79.2812 527.433 79.6758C527.667 80.0664 527.785 80.4844 527.785 80.9297H526.66C526.66 80.6094 526.591 80.3262 526.455 80.0801C526.318 79.8301 526.111 79.6348 525.833 79.4941C525.556 79.3496 525.205 79.2773 524.779 79.2773C524.376 79.2773 524.044 79.3379 523.783 79.459C523.521 79.5801 523.326 79.7441 523.197 79.9512C523.072 80.1582 523.009 80.3945 523.009 80.6602C523.009 80.8398 523.046 81.0039 523.121 81.1523C523.199 81.2969 523.318 81.4316 523.478 81.5566C523.642 81.6816 523.849 81.7969 524.099 81.9023C524.353 82.0078 524.656 82.1094 525.007 82.207C525.492 82.3438 525.91 82.4961 526.261 82.6641C526.613 82.832 526.902 83.0215 527.128 83.2324C527.359 83.4395 527.529 83.6758 527.638 83.9414C527.751 84.2031 527.808 84.5 527.808 84.832C527.808 85.1797 527.738 85.4941 527.597 85.7754C527.457 86.0566 527.255 86.2969 526.994 86.4961C526.732 86.6953 526.417 86.8496 526.05 86.959C525.687 87.0645 525.281 87.1172 524.832 87.1172C524.437 87.1172 524.048 87.0625 523.666 86.9531C523.287 86.8438 522.941 86.6797 522.628 86.4609C522.32 86.2422 522.072 85.9727 521.884 85.6523C521.701 85.3281 521.609 84.9531 521.609 84.5273H522.734C522.734 84.8203 522.791 85.0723 522.904 85.2832C523.017 85.4902 523.171 85.6621 523.367 85.7988C523.566 85.9355 523.791 86.0371 524.041 86.1035C524.294 86.166 524.558 86.1973 524.832 86.1973C525.226 86.1973 525.56 86.1426 525.833 86.0332C526.107 85.9238 526.314 85.7676 526.455 85.5645C526.599 85.3613 526.671 85.1211 526.671 84.8438ZM534.13 78.4688H535.255V84.2402C535.255 84.8809 535.113 85.4141 534.828 85.8398C534.542 86.2656 534.164 86.5859 533.691 86.8008C533.222 87.0117 532.712 87.1172 532.162 87.1172C531.583 87.1172 531.06 87.0117 530.591 86.8008C530.126 86.5859 529.757 86.2656 529.484 85.8398C529.214 85.4141 529.08 84.8809 529.08 84.2402V78.4688H530.199V84.2402C530.199 84.6855 530.281 85.0527 530.445 85.3418C530.609 85.6309 530.837 85.8457 531.13 85.9863C531.427 86.127 531.771 86.1973 532.162 86.1973C532.556 86.1973 532.9 86.127 533.193 85.9863C533.49 85.8457 533.72 85.6309 533.884 85.3418C534.048 85.0527 534.13 84.6855 534.13 84.2402V78.4688ZM543.593 78.4688V87H542.457L538.162 80.4199V87H537.031V78.4688H538.162L542.474 85.0664V78.4688H543.593Z" fill="#8794BA"/>
<defs>
<filter id="filter0_d_535_1644" x="0.870605" y="0" width="670" height="480" filterUnits="userSpaceOnUse" color-interpolation-filters="sRGB">
<feFlood flood-opacity="0" result="BackgroundImageFix"/>
<feColorMatrix in="SourceAlpha" type="matrix" values="0 0 0 0 0 0 0 0 0 0 0 0 0 0 0 0 0 0 127 0" result="hardAlpha"/>
<feMorphology radius="15" operator="erode" in="SourceAlpha" result="effect1_dropShadow_535_1644"/>
<feOffset dy="18"/>
<feGaussianBlur stdDeviation="25"/>
<feColorMatrix type="matrix" values="0 0 0 0 0.0996452 0 0 0 0 0.164326 0 0 0 0 0.350284 0 0 0 0.2 0"/>
<feBlend mode="normal" in2="BackgroundImageFix" result="effect1_dropShadow_535_1644"/>
<feBlend mode="normal" in="SourceGraphic" in2="effect1_dropShadow_535_1644" result="shape"/>
</filter>
</defs>
</svg>
